<?xml version="1.0" encoding="UTF-8" standalone="no"?>
<svg xmlns:dc="http://purl.org/dc/elements/1.1/"
  xmlns:cc="http://creativecommons.org/ns#"
  xmlns:rdf="http://www.w3.org/1999/02/22-rdf-syntax-ns#"
  xmlns:svg="http://www.w3.org/2000/svg"
  xmlns="http://www.w3.org/2000/svg" viewBox="0 0 610.22668 284.29387566102764" height="284.29387566102764" width="610.22668" xml:space="preserve" id="svg2" version="1.1">
  <metadata id="metadata8">
    <rdf:RDF>
      <cc:Work rdf:about="">
        <dc:format>image/svg+xml</dc:format>
        <dc:type rdf:resource="http://purl.org/dc/dcmitype/StillImage" />
      </cc:Work>
    </rdf:RDF>
  </metadata>
  <defs id="defs6" />
  <path fill="#000000" d="M192.79 270.42L192.79 270.42Q200.96 270.42 200.96 264.82L200.96 264.82Q200.96 263.10 200.23 261.89Q199.51 260.68 198.27 259.79Q197.03 258.91 195.45 258.26Q193.86 257.62 192.09 256.97L192.09 256.97Q190.04 256.27 188.21 255.38Q186.38 254.50 185.04 253.29Q183.70 252.08 182.92 250.41Q182.14 248.74 182.14 246.37L182.14 246.37Q182.14 241.48 185.47 238.74Q188.80 235.99 194.67 235.99L194.67 235.99Q198.06 235.99 200.83 236.72Q203.60 237.45 204.89 238.31L204.89 238.31L203.22 242.56Q202.09 241.86 199.86 241.18Q197.63 240.51 194.67 240.51L194.67 240.51Q193.16 240.51 191.87 240.83Q190.58 241.16 189.61 241.80Q188.64 242.45 188.08 243.44Q187.51 244.44 187.51 245.78L187.51 245.78Q187.51 247.29 188.11 248.31Q188.70 249.33 189.77 250.11Q190.85 250.89 192.27 251.54Q193.70 252.18 195.42 252.83L195.42 252.83Q197.84 253.80 199.86 254.77Q201.87 255.73 203.35 257.08Q204.83 258.42 205.64 260.28Q206.45 262.13 206.45 264.77L206.45 264.77Q206.45 269.66 202.87 272.30Q199.29 274.94 192.79 274.94L192.79 274.94Q190.58 274.94 188.72 274.64Q186.87 274.34 185.42 273.94Q183.96 273.54 182.92 273.08Q181.87 272.62 181.27 272.30L181.27 272.30L182.83 268.00Q184.07 268.70 186.60 269.56Q189.13 270.42 192.79 270.42ZM224.03 274.77L224.03 274.77Q220.65 274.77 218.09 273.70Q215.54 272.62 213.79 270.69Q212.04 268.75 211.18 266.09Q210.32 263.42 210.32 260.20L210.32 260.20Q210.32 256.97 211.26 254.28Q212.20 251.59 213.92 249.63Q215.64 247.67 218.15 246.56Q220.65 245.46 223.71 245.46L223.71 245.46Q225.59 245.46 227.48 245.78Q229.36 246.11 231.08 246.81L231.08 246.81L229.95 251.05Q228.82 250.52 227.34 250.19Q225.86 249.87 224.20 249.87L224.20 249.87Q220.00 249.87 217.77 252.51Q215.54 255.14 215.54 260.20L215.54 260.20Q215.54 262.46 216.05 264.34Q216.56 266.22 217.66 267.57Q218.76 268.91 220.48 269.64Q222.21 270.36 224.68 270.36L224.68 270.36Q226.67 270.36 228.28 269.99Q229.90 269.61 230.81 269.18L230.81 269.18L231.51 273.38Q231.08 273.64 230.27 273.89Q229.47 274.13 228.45 274.32Q227.42 274.50 226.27 274.64Q225.11 274.77 224.03 274.77ZM241.35 274.13L236.35 274.13L236.35 233.25L241.35 232.39L241.35 246.70Q242.75 246.16 244.34 245.86Q245.93 245.57 247.49 245.57L247.49 245.57Q250.82 245.57 253.03 246.51Q255.23 247.45 256.55 249.14Q257.87 250.84 258.40 253.21Q258.94 255.57 258.94 258.42L258.94 258.42L258.94 274.13L253.94 274.13L253.94 259.50Q253.94 256.92 253.59 255.09Q253.24 253.26 252.43 252.13Q251.63 251.00 250.28 250.49Q248.94 249.98 246.95 249.98L246.95 249.98Q246.14 249.98 245.28 250.09Q244.42 250.19 243.64 250.33Q242.86 250.46 242.24 250.62Q241.62 250.79 241.35 250.89L241.35 250.89L241.35 274.13ZM291.21 260.14L291.21 260.14Q291.21 263.48 290.24 266.17Q289.28 268.86 287.53 270.79Q285.78 272.73 283.36 273.78Q280.94 274.83 278.09 274.83L278.09 274.83Q275.24 274.83 272.82 273.78Q270.40 272.73 268.65 270.79Q266.90 268.86 265.93 266.17Q264.97 263.48 264.97 260.14L264.97 260.14Q264.97 256.86 265.93 254.15Q266.90 251.43 268.65 249.49Q270.40 247.56 272.82 246.51Q275.24 245.46 278.09 245.46L278.09 245.46Q280.94 245.46 283.36 246.51Q285.78 247.56 287.53 249.49Q289.28 251.43 290.24 254.15Q291.21 256.86 291.21 260.14ZM286.00 260.14L286.00 260.14Q286.00 255.41 283.87 252.64Q281.75 249.87 278.09 249.87L278.09 249.87Q274.43 249.87 272.31 252.64Q270.18 255.41 270.18 260.14L270.18 260.14Q270.18 264.88 272.31 267.65Q274.43 270.42 278.09 270.42L278.09 270.42Q281.75 270.42 283.87 267.65Q286.00 264.88 286.00 260.14ZM308.05 245.57L308.05 245.57Q308.69 245.57 309.53 245.65Q310.36 245.73 311.17 245.86Q311.97 246.00 312.65 246.13Q313.32 246.27 313.64 246.37L313.64 246.37L312.78 250.73Q312.19 250.52 310.82 250.22Q309.45 249.92 307.30 249.92L307.30 249.92Q305.90 249.92 304.53 250.22Q303.15 250.52 302.72 250.62L302.72 250.62L302.72 274.13L297.72 274.13L297.72 247.34Q299.50 246.70 302.13 246.13Q304.77 245.57 308.05 245.57ZM317.94 274.13L317.94 246.97Q319.67 246.54 322.52 246.05Q325.37 245.57 329.08 245.57L329.08 245.57Q332.41 245.57 334.62 246.51Q336.82 247.45 338.14 249.14Q339.46 250.84 340.00 253.21Q340.53 255.57 340.53 258.42L340.53 258.42L340.53 274.13L335.53 274.13L335.53 259.50Q335.53 256.92 335.18 255.09Q334.83 253.26 334.03 252.13Q333.22 251.00 331.88 250.49Q330.53 249.98 328.54 249.98L328.54 249.98Q327.73 249.98 326.87 250.03Q326.01 250.09 325.23 250.17Q324.45 250.25 323.83 250.36Q323.22 250.46 322.95 250.52L322.95 250.52L322.95 274.13L317.94 274.13ZM366.35 269.77L366.35 252.08Q365.44 251.32 363.72 250.62Q362.00 249.92 359.95 249.92L359.95 249.92Q357.80 249.92 356.27 250.70Q354.73 251.48 353.77 252.86Q352.80 254.23 352.37 256.11Q351.94 257.99 351.94 260.14L351.94 260.14Q351.94 265.04 354.36 267.70Q356.78 270.36 360.81 270.36L360.81 270.36Q362.86 270.36 364.23 270.18Q365.60 269.99 366.35 269.77L366.35 269.77ZM366.35 247.40L366.35 233.25L371.35 232.39L371.35 273.32Q369.63 273.81 366.94 274.29Q364.25 274.77 360.76 274.77L360.76 274.77Q357.53 274.77 354.95 273.75Q352.37 272.73 350.54 270.85Q348.71 268.96 347.72 266.25Q346.72 263.53 346.72 260.14L346.72 260.14Q346.72 256.92 347.55 254.23Q348.39 251.54 350.00 249.60Q351.61 247.67 353.95 246.59Q356.29 245.51 359.31 245.51L359.31 245.51Q361.73 245.51 363.58 246.16Q365.44 246.81 366.35 247.40L366.35 247.40ZM404.11 260.14L404.11 260.14Q404.11 263.48 403.14 266.17Q402.17 268.86 400.43 270.79Q398.68 272.73 396.26 273.78Q393.84 274.83 390.99 274.83L390.99 274.83Q388.14 274.83 385.71 273.78Q383.29 272.73 381.55 270.79Q379.80 268.86 378.83 266.17Q377.86 263.48 377.86 260.14L377.86 260.14Q377.86 256.86 378.83 254.15Q379.80 251.43 381.55 249.49Q383.29 247.56 385.71 246.51Q388.14 245.46 390.99 245.46L390.99 245.46Q393.84 245.46 396.26 246.51Q398.68 247.56 400.43 249.49Q402.17 251.43 403.14 254.15Q404.11 256.86 404.11 260.14ZM398.89 260.14L398.89 260.14Q398.89 255.41 396.77 252.64Q394.64 249.87 390.99 249.87L390.99 249.87Q387.33 249.87 385.20 252.64Q383.08 255.41 383.08 260.14L383.08 260.14Q383.08 264.88 385.20 267.65Q387.33 270.42 390.99 270.42L390.99 270.42Q394.64 270.42 396.77 267.65Q398.89 264.88 398.89 260.14ZM420.94 245.57L420.94 245.57Q421.59 245.57 422.42 245.65Q423.26 245.73 424.06 245.86Q424.87 246.00 425.54 246.13Q426.22 246.27 426.54 246.37L426.54 246.37L425.68 250.73Q425.09 250.52 423.71 250.22Q422.34 249.92 420.19 249.92L420.19 249.92Q418.79 249.92 417.42 250.22Q416.05 250.52 415.62 250.62L415.62 250.62L415.62 274.13L410.62 274.13L410.62 247.34Q412.39 246.70 415.03 246.13Q417.66 245.57 420.94 245.57ZM441.76 232.39L441.76 232.39Q443.96 232.39 445.55 232.71Q447.14 233.04 447.78 233.30L447.78 233.30L446.87 237.61Q446.22 237.29 445.04 236.99Q443.86 236.69 442.14 236.69L442.14 236.69Q438.64 236.69 437.24 238.60Q435.84 240.51 435.84 243.74L435.84 243.74L435.84 246.16L446.60 246.16L446.60 250.36L435.84 250.36L435.84 274.13L430.84 274.13L430.84 243.63Q430.84 238.25 433.48 235.32Q436.11 232.39 441.76 232.39Z"/>
  <g transform="matrix(1.3333333,0,0,-1.3333333,0,214.06667)" id="g10">
    <g transform="scale(0.1)" id="g12">
      <path id="path14" style="fill:#ff8c00;fill-opacity:1;fill-rule:nonzero;stroke:none" d="m 456.379,1054.18 579.751,524.14 -620.857,-54.33 41.106,-469.81 v 0" />
      <path id="path16" style="fill:#ff8c00;fill-opacity:1;fill-rule:nonzero;stroke:none" d="M 406.363,842.223 1060.97,415.238 439.262,371.77 406.363,842.223 v 0" />
      <path id="path18" style="fill:#ff8c00;fill-opacity:1;fill-rule:nonzero;stroke:none" d="m 3242.58,1460.14 c 40.13,0 72.68,32.5 72.68,72.65 0,40.16 -32.55,72.66 -72.68,72.66 -40.15,0 -72.69,-32.5 -72.69,-72.66 0,-40.15 32.54,-72.65 72.69,-72.65 v 0" />
      <path id="path20" style="fill:#000000;fill-opacity:1;fill-rule:nonzero;stroke:none" d="M 0,1493.66 V 424.281 H 360.344 V 1493.66 H 0 v 0" />
      <path id="path22" style="fill:#000000;fill-opacity:1;fill-rule:nonzero;stroke:none" d="M 1133.14,1492.77 V 425.172 l -705.39,533.801 705.39,533.797 v 0" />
      <path id="path24" style="fill:#000000;fill-opacity:1;fill-rule:nonzero;stroke:none" d="m 4477.04,283.449 c -9.75,-4.019 -22.78,-7.168 -39.11,-9.461 -16.34,-2.289 -30.52,-3.429 -42.56,-3.429 -37.25,0 -66.04,10.742 -86.39,32.23 -20.34,21.492 -30.5,58.59 -30.5,111.313 0,55.578 10.88,95.418 32.65,119.476 21.78,24.082 49.56,36.113 83.38,36.113 11.47,0 23.64,-0.582 36.53,-1.722 12.91,-1.149 28.23,-4.008 46,-8.59 z m 99.71,-45.558 v 569.902 c 0,6.301 -1.29,10.312 -3.84,12.031 -2.56,1.719 -6.68,2.582 -12.36,2.582 h -66.47 c -6.26,0 -10.66,-0.863 -13.22,-2.582 -2.55,-1.719 -3.82,-5.73 -3.82,-12.031 V 645.332 c -18.35,4.582 -35.4,7.441 -51.15,8.594 -15.76,1.144 -29.38,1.719 -40.83,1.719 -37.26,0 -69.06,-6.59 -95.41,-19.766 -26.37,-13.191 -48.14,-30.809 -65.33,-52.867 -17.19,-22.063 -29.81,-47.711 -37.83,-76.934 -8.02,-29.219 -12.03,-59.887 -12.03,-91.976 0,-34.383 3.58,-65.622 10.73,-93.692 7.13,-28.09 18.86,-52.148 35.17,-72.211 16.29,-20.058 37.59,-35.527 63.89,-46.41 26.3,-10.879 58.61,-16.328 96.93,-16.328 9.72,0 25.44,0.719 47.17,2.148 21.73,1.43 43.59,4.012 65.62,7.731 22.02,3.719 41.31,9.031 57.91,15.898 16.57,6.883 24.87,15.762 24.87,26.653 v 0" />
      <path id="path26" style="fill:#000000;fill-opacity:1;fill-rule:nonzero;stroke:none" d="m 2376.23,280.121 c -15,5.481 -26.67,13.688 -35.02,24.641 -8.36,10.937 -13.97,24.769 -16.85,41.5 -2.9,16.707 -4.33,36.308 -4.33,58.777 V 635 c 0,6.34 -1.29,10.371 -3.89,12.102 -2.6,1.726 -6.77,2.597 -12.54,2.597 h -67.42 c -6.35,0 -10.68,-0.871 -12.97,-2.597 -2.31,-1.731 -3.46,-5.762 -3.46,-12.102 V 406.77 c 0,-39.77 3.89,-73.782 11.67,-102.008 7.78,-28.25 20.02,-51.16 36.74,-68.723 16.71,-17.59 38.61,-30.41 65.71,-38.48 27.08,-8.071 60.21,-12.098 99.41,-12.098 7.48,0 16.13,0.148 25.94,0.43 9.79,0.3 19.88,0.73 30.25,1.3 10.38,0.571 20.46,1.438 30.27,2.59 9.79,1.16 18.43,2.309 25.93,3.457 20.17,4.032 34.87,11.961 44.09,23.774 9.21,11.808 13.83,27.808 13.83,47.976 V 635 c 0,6.34 -1.3,10.371 -3.89,12.102 -2.59,1.726 -6.78,2.597 -12.53,2.597 h -67.43 c -6.35,0 -10.68,-0.871 -12.97,-2.597 -2.32,-1.731 -3.46,-5.762 -3.46,-12.102 V 277.09 c -15.57,-2.891 -29.26,-4.461 -41.06,-4.75 -11.82,-0.301 -20.9,-0.43 -27.24,-0.43 -24.2,0 -43.8,2.731 -58.78,8.211 v 0" />
      <path id="path28" style="fill:#000000;fill-opacity:1;fill-rule:nonzero;stroke:none" d="m 2993.48,288.379 c -18.46,-5.219 -35.88,-8.688 -52.31,-10.418 -16.42,-1.731 -29.26,-2.59 -38.46,-2.59 -34.58,0 -61.68,11.848 -81.27,35.539 -19.6,23.692 -29.4,60.988 -29.4,111.852 0,27.75 2.88,51.16 8.64,70.226 5.77,19.071 13.84,34.532 24.21,46.383 10.38,11.84 22.91,20.508 37.61,26.008 14.7,5.492 30.98,8.242 48.85,8.242 11.52,0 24.64,-0.883 39.33,-2.601 14.7,-1.731 28.96,-4.622 42.8,-8.668 z m 102.01,-51.91 v 370.008 c 0,4.597 -0.87,8.496 -2.6,11.668 -1.73,3.156 -5.48,6.183 -11.24,9.074 -25.93,11.523 -54.18,19.453 -84.72,23.777 -30.55,4.317 -60.51,6.484 -89.91,6.484 -38.04,0 -70.75,-6.054 -98.11,-18.152 -27.39,-12.109 -50.01,-28.683 -67.87,-49.719 -17.88,-21.039 -31.13,-46.25 -39.77,-75.629 -8.64,-29.402 -12.97,-61.39 -12.97,-95.968 0,-34.024 3.9,-64.981 11.67,-92.934 7.78,-27.969 19.74,-52.019 35.88,-72.187 16.13,-20.18 36.59,-35.879 61.38,-47.121 24.77,-11.239 54.17,-16.848 88.18,-16.848 16.13,0 33.85,1.297 53.16,3.879 19.31,2.597 37.32,6.488 54.04,11.668 v -5.18 c 0,-18.437 -3.32,-33.848 -9.94,-46.25 -6.63,-12.379 -16.15,-22.769 -28.53,-31.129 -12.4,-8.34 -27.38,-14.98 -44.96,-19.879 -17.58,-4.8904 -37.03,-9.0701 -58.35,-12.531 -7.5,-1.7305 -10.96,-6.3398 -10.37,-13.8398 l 8.64,-65.69926 c 1.15,-8.0625 6.62,-11.24219 16.43,-9.511721 38.03,5.199221 71.32,12.972681 99.85,23.351581 28.53,10.3711 52.43,24.7773 71.75,43.2187 19.31,18.4493 33.86,41.5005 43.66,69.1605 9.8,27.672 14.7,61.09 14.7,100.289 v 0" />
      <path id="path30" style="fill:#000000;fill-opacity:1;fill-rule:nonzero;stroke:none" d="m 3501.8,464.699 h -198.84 c 0.57,14.391 3.46,28.231 8.64,41.492 5.19,13.25 12.1,25.071 20.75,35.438 8.65,10.383 19.02,18.601 31.13,24.641 12.1,6.05 25.92,9.082 41.49,9.082 19.58,0 35.58,-2.891 47.98,-8.641 12.38,-5.77 22.18,-13.699 29.39,-23.781 7.2,-10.09 12.24,-21.758 15.13,-35.008 2.88,-13.262 4.33,-27.672 4.33,-43.223 z m 96.81,3.461 c 0,59.352 -15.98,106.031 -47.98,140.043 -31.98,33.996 -81.12,51.008 -147.39,51.008 -29.98,0 -57.63,-5.344 -83,-15.996 -25.36,-10.676 -47.11,-26.231 -65.26,-46.684 -18.16,-20.461 -32.42,-45.531 -42.79,-75.211 -10.38,-29.691 -15.57,-63.55 -15.57,-101.582 0,-81.258 18.44,-140.629 55.33,-178.09 36.88,-37.468 90.19,-56.187 159.93,-56.187 23.63,0 48.41,2.598 74.35,7.777 25.94,5.192 49.84,14.403 71.76,27.66 8.05,4.032 10.08,10.661 6.04,19.891 l -23.34,49.281 c -3.45,7.481 -9.8,9.211 -19.01,5.18 -13.27,-6.34 -28.83,-11.82 -46.69,-16.422 -17.87,-4.617 -36.03,-6.918 -54.46,-6.918 -16.72,0 -32.29,2.02 -46.68,6.051 -14.42,4.019 -27.1,10.809 -38.04,20.309 -10.96,9.511 -19.6,21.91 -25.94,37.179 -6.34,15.262 -9.8,34.153 -10.37,56.629 h 229.95 c 9.8,0 18.88,1.141 27.24,3.461 8.35,2.289 15.69,6.332 22.04,12.102 6.34,5.75 11.24,13.531 14.7,23.339 3.45,9.79 5.18,22.18 5.18,37.18 v 0" />
      <path id="path32" style="fill:#000000;fill-opacity:1;fill-rule:nonzero;stroke:none" d="m 3922.36,564.539 c 15.85,-5.48 28.38,-13.687 37.61,-24.641 9.21,-10.949 15.69,-24.777 19.45,-41.488 3.74,-16.719 5.62,-36.308 5.62,-58.789 V 209.66 c 0,-6.351 1.29,-10.371 3.85,-12.101 2.57,-1.731 6.72,-2.59 12.44,-2.59 h 67.7 c 6.28,0 10.57,0.859 12.86,2.59 2.29,1.73 3.43,5.75 3.43,12.101 v 228.231 c 0,39.769 -4.32,73.769 -12.94,102.007 -8.63,28.243 -22,51.153 -40.11,68.735 -18.12,17.578 -41.13,30.39 -69.01,38.469 -27.89,8.066 -60.81,12.109 -98.77,12.109 -7.48,0 -16.39,-0.305 -26.74,-0.871 -10.35,-0.574 -20.99,-1.16 -31.92,-1.727 -10.93,-0.578 -21.28,-1.445 -31.05,-2.59 -9.78,-1.16 -17.53,-2.031 -23.28,-2.597 -23.58,-4.043 -39.12,-11.817 -46.59,-23.34 -7.48,-11.531 -11.21,-27.664 -11.21,-48.414 V 209.66 c 0,-6.351 1.3,-10.371 3.89,-12.101 2.6,-1.731 6.77,-2.59 12.54,-2.59 h 67.43 c 6.34,0 10.65,0.859 12.97,2.59 2.29,1.73 3.45,5.75 3.45,12.101 v 357.91 c 15.56,2.879 29.25,4.461 41.07,4.75 11.81,0.289 20.88,0.43 27.23,0.43 24.2,0 44.22,-2.738 60.08,-8.211 v 0" />
      <path id="path34" style="fill:#000000;fill-opacity:1;fill-rule:nonzero;stroke:none" d="m 1840.24,1479.05 c 3.46,4.03 4.33,7.49 2.6,10.38 -1.73,2.87 -5.19,4.32 -10.37,4.32 h -88.19 c -8.64,0 -15.56,-1.02 -20.74,-3.03 -5.19,-2.02 -9.52,-5.05 -12.97,-9.08 l -131.4,-160.79 -86.46,-109.8 -3.46,1.74 v 262.8 c 0,8.07 -1.29,13.11 -3.88,15.13 -2.6,2.01 -7.93,3.03 -16,3.03 h -64.84 c -6.35,0 -11.23,-1.16 -14.7,-3.46 -3.45,-2.31 -5.18,-7.21 -5.18,-14.7 V 906.75 c 0,-7.5 1.73,-12.402 5.18,-14.699 3.47,-2.309 8.35,-3.457 14.7,-3.457 h 64.84 c 8.07,0 13.4,0.996 16,3.023 2.59,2.016 3.88,7.055 3.88,15.133 v 146.96 l 109.8,134.86 154.74,-281.82 c 5.19,-9.23 10.08,-14.562 14.7,-15.996 4.61,-1.445 12.39,-2.16 23.34,-2.16 h 76.94 c 13.25,0 16.13,6.617 8.65,19.883 l -205.75,367.413 168.57,203.16 v 0" />
      <path id="path36" style="fill:#000000;fill-opacity:1;fill-rule:nonzero;stroke:none" d="m 2218.03,1188.47 c 0,-20.29 -1.88,-39.56 -5.62,-57.83 -3.76,-18.26 -9.81,-34.33 -18.16,-48.25 -8.36,-13.91 -19.45,-25.07 -33.28,-33.47 -13.84,-8.4 -30.84,-12.6 -51.01,-12.6 -39.76,0 -67.43,13.77 -82.99,41.29 -15.56,27.53 -23.34,65.35 -23.34,113.47 0,21.44 2.16,41.43 6.48,59.97 4.32,18.55 11.09,34.49 20.32,47.82 9.21,13.34 20.75,23.92 34.58,31.75 13.83,7.82 29.96,11.74 48.41,11.74 20.75,0 37.89,-4.07 51.44,-12.17 13.53,-8.12 24.21,-19.28 31.99,-33.48 7.77,-14.21 13.25,-30.58 16.42,-49.12 3.16,-18.55 4.76,-38.26 4.76,-59.12 z m 102.87,2.6 c 0,73.18 -17.72,130.67 -53.17,172.47 -35.44,41.77 -87.46,62.67 -156.04,62.67 -31.12,0 -59.51,-5.33 -85.15,-15.99 -25.65,-10.67 -47.7,-26.08 -66.14,-46.25 -18.45,-20.18 -32.85,-44.95 -43.22,-74.35 -10.38,-29.39 -15.56,-63.11 -15.56,-101.15 0,-77.24 17.14,-135.87 51.44,-175.92 34.28,-40.07 86.3,-60.089 156.04,-60.089 70.3,0 123.19,20.602 158.63,61.809 35.45,41.2 53.17,100.14 53.17,176.8 v 0" />
      <path id="path38" style="fill:#000000;fill-opacity:1;fill-rule:nonzero;stroke:none" d="m 2594.95,1031.13 c -0.58,4.61 -1.88,7.64 -3.9,9.08 -2.02,1.43 -5.33,1.86 -9.94,1.3 -4.03,-0.58 -9.07,-1.16 -15.12,-1.73 -6.06,-0.58 -11.39,-0.87 -16,-0.87 -11.53,0 -19.32,2.73 -23.34,8.22 -4.04,5.47 -6.05,15.69 -6.05,30.69 v 501.41 c 0,6.34 -1.29,10.38 -3.89,12.1 -2.6,1.73 -7.06,2.6 -13.4,2.6 h -68.3 c -5.76,0 -9.94,-0.87 -12.53,-2.6 -2.6,-1.72 -3.9,-5.76 -3.9,-12.1 v -525.62 c 0,-37.47 7.49,-63.688 22.48,-78.669 14.98,-14.98 38.61,-22.48 70.89,-22.48 11.53,0 24.64,0.734 39.34,2.164 14.7,1.445 27.8,4.473 39.34,9.078 5.75,2.875 9.2,5.32 10.37,7.348 1.15,2.012 1.15,5.902 0,11.672 l -6.05,48.407 v 0" />
      <path id="path40" style="fill:#000000;fill-opacity:1;fill-rule:nonzero;stroke:none" d="m 2984.83,1190.2 c 0,-28.24 -2.9,-51.87 -8.68,-70.89 -5.8,-19.02 -13.9,-34.44 -24.31,-46.25 -10.42,-11.82 -22.71,-20.31 -36.9,-25.5 -14.18,-5.18 -29.68,-7.78 -46.45,-7.78 -11.58,0 -24.16,0.86 -37.77,2.6 -13.6,1.72 -29.38,4.88 -47.31,9.5 v 274.91 c 10.41,3.46 23.58,6.34 39.49,8.65 15.91,2.29 29.67,3.46 41.25,3.46 18.51,0 35.3,-2.6 50.35,-7.78 15.04,-5.19 27.79,-13.7 38.21,-25.5 10.42,-11.82 18.37,-27.1 23.87,-45.82 5.5,-18.74 8.25,-41.93 8.25,-69.6 z m 104.61,-0.86 c 0,32.85 -3.89,63.67 -11.68,92.5 -7.77,28.81 -20.17,53.88 -37.16,75.21 -17.02,21.32 -38.77,38.04 -65.28,50.14 -26.51,12.11 -58.5,18.16 -95.95,18.16 -28.83,0 -59.22,-2.31 -91.22,-6.92 -31.98,-4.62 -62.39,-13.26 -91.2,-25.93 -5.77,-2.89 -9.51,-5.77 -11.24,-8.65 -1.73,-2.89 -2.58,-6.92 -2.58,-12.1 V 801.172 c 0,-6.328 1.27,-10.371 3.84,-12.098 2.57,-1.73 6.71,-2.597 12.44,-2.597 h 67.7 c 6.29,0 10.57,0.867 12.86,2.597 2.29,1.727 3.44,5.77 3.44,12.098 V 965.43 c 20.21,-4.606 38.56,-7.778 55.04,-9.504 16.48,-1.735 32.51,-2.602 48.12,-2.602 34.1,0 63.86,6.203 89.29,18.59 25.43,12.391 46.52,29.396 63.29,51.006 16.76,21.61 29.34,46.69 37.72,75.21 8.36,28.53 12.57,58.92 12.57,91.21 v 0" />
      <path id="path42" style="fill:#000000;fill-opacity:1;fill-rule:nonzero;stroke:none" d="m 3646.6,1331.55 c 15.84,-5.48 28.38,-13.7 37.6,-24.64 9.22,-10.95 15.7,-24.78 19.45,-41.49 3.74,-16.73 5.63,-36.31 5.63,-58.79 V 976.672 c 0,-6.348 1.28,-10.375 3.85,-12.106 2.56,-1.726 6.7,-2.593 12.44,-2.593 h 67.7 c 6.28,0 10.56,0.867 12.85,2.593 2.29,1.731 3.44,5.758 3.44,12.106 V 1204.9 c 0,39.77 -4.33,73.77 -12.94,102.01 -8.63,28.23 -22.01,51.14 -40.13,68.73 -18.1,17.57 -41.11,30.39 -68.99,38.47 -27.89,8.07 -60.81,12.1 -98.77,12.1 -7.48,0 -16.4,-0.3 -26.75,-0.86 -10.34,-0.58 -20.98,-1.17 -31.91,-1.73 -10.93,-0.58 -21.28,-1.44 -31.06,-2.59 -9.78,-1.17 -17.54,-2.03 -23.28,-2.6 -23.58,-4.04 -39.11,-11.82 -46.58,-23.34 -7.49,-11.54 -11.21,-27.66 -11.21,-48.41 V 976.672 c 0,-6.348 1.29,-10.375 3.89,-12.106 2.59,-1.726 6.76,-2.593 12.54,-2.593 h 67.43 c 6.33,0 10.65,0.867 12.96,2.593 2.3,1.731 3.46,5.758 3.46,12.106 v 357.898 c 15.56,2.88 29.24,4.47 41.07,4.76 11.79,0.28 20.88,0.43 27.22,0.43 24.21,0 44.23,-2.74 60.09,-8.21 v 0" />
      <path id="path44" style="fill:#000000;fill-opacity:1;fill-rule:nonzero;stroke:none" d="m 4203.77,1055.38 c -18.45,-5.21 -35.88,-8.68 -52.31,-10.41 -16.42,-1.73 -29.25,-2.59 -38.46,-2.59 -34.58,0 -61.68,11.84 -81.26,35.53 -19.6,23.69 -29.4,60.99 -29.4,111.86 0,27.75 2.87,51.16 8.65,70.23 5.75,19.07 13.82,34.52 24.21,46.37 10.37,11.85 22.91,20.52 37.6,26.01 14.69,5.49 30.97,8.25 48.84,8.25 11.52,0 24.64,-0.88 39.34,-2.61 14.69,-1.73 28.96,-4.62 42.79,-8.66 z m 102.01,-51.91 v 370.01 c 0,4.6 -0.86,8.49 -2.59,11.67 -1.73,3.15 -5.48,6.19 -11.24,9.07 -25.93,11.53 -54.18,19.46 -84.72,23.78 -30.56,4.32 -60.52,6.48 -89.91,6.48 -38.03,0 -70.76,-6.05 -98.12,-18.15 -27.38,-12.11 -50.01,-28.68 -67.86,-49.71 -17.87,-21.05 -31.13,-46.25 -39.77,-75.64 -8.65,-29.4 -12.97,-61.38 -12.97,-95.96 0,-34.02 3.89,-64.99 11.67,-92.94 7.79,-27.96 19.74,-52.02 35.88,-72.19 16.13,-20.175 36.59,-35.87 61.38,-47.113 24.77,-11.238 54.17,-16.851 88.17,-16.851 16.14,0 33.86,1.293 53.18,3.883 19.29,2.593 37.3,6.488 54.03,11.671 v -5.183 c 0,-18.442 -3.33,-33.856 -9.94,-46.25 -6.64,-12.391 -16.14,-22.766 -28.54,-31.125 -12.4,-8.352 -27.38,-14.981 -44.95,-19.883 -17.59,-4.894 -37.04,-9.078 -58.35,-12.535 -7.5,-1.727 -10.95,-6.336 -10.38,-13.832 l 8.64,-65.699 c 1.16,-8.067 6.63,-11.239 16.43,-9.512 38.04,5.187 71.33,12.969 99.85,23.34 28.53,10.371 52.45,24.785 71.76,43.222 19.3,18.454 33.85,41.5 43.65,69.161 9.8,27.668 14.7,61.086 14.7,100.286 v 0" />
      <path id="path46" style="fill:#000000;fill-opacity:1;fill-rule:nonzero;stroke:none" d="m 2041.14,698.105 c 40.14,0 72.69,32.5 72.69,72.657 0,40.156 -32.55,72.656 -72.69,72.656 -40.14,0 -72.68,-32.5 -72.68,-72.656 0,-40.157 32.54,-72.657 72.68,-72.657 v 0" />
      <path id="path48" style="fill:#000000;fill-opacity:1;fill-rule:nonzero;stroke:none" d="m 2090.88,637.336 c 0,6.297 -1.14,10.312 -3.41,12.031 -2.28,1.719 -6.54,2.578 -12.79,2.578 l -67.31,-24.23 c 0,0 -9.82,-3.125 -12.37,-4.844 -2.55,-1.719 -3.83,-5.742 -3.83,-12.039 V 255.68 c 0,-17.192 -1.01,-33.379 -3.01,-48.571 -2.01,-15.179 -6.16,-29.5 -12.46,-42.98 -6.32,-13.457 -15.19,-25.777 -26.65,-36.949 -11.47,-11.18 -26.65,-21.071 -45.56,-29.6605 -4.58,-2.8593 -7.87,-5.289 -9.88,-7.3007 -2,-2.0079 -1.86,-5.8672 0.43,-11.6172 l 21.49,-60.1602 c 2.28,-7.4414 8.87,-9.74218 19.77,-6.8828 21.77,7.4531 42.21,17.1914 61.31,29.2227 19.1,12.039 35.6,27.9375 49.52,47.7187 13.91,19.762 24.86,44.129 32.81,73.051 7.95,28.949 11.94,64.051 11.94,105.308 v 370.477 0" />
      <path id="path50" style="fill:#000000;fill-opacity:1;fill-rule:nonzero;stroke:none" d="m 3292.43,1399.51 c 0,6.3 -1.29,10.31 -3.87,12.03 -2.57,1.72 -7.02,2.58 -13.32,2.58 l -66.19,-24.23 c 0,0 -9.88,-4.11 -12.46,-5.83 -2.58,-1.72 -3.87,-5.74 -3.87,-12.03 V 977.457 c 0,-6.312 1.29,-10.316 3.87,-12.035 2.58,-1.719 6.73,-2.578 12.46,-2.578 h 66.19 c 6.3,0 10.75,0.859 13.32,2.578 2.58,1.719 3.87,5.723 3.87,12.035 v 422.053 0" />
    </g>
  </g>
</svg>